<svg xmlns="http://www.w3.org/2000/svg" viewBox="0 0 410 404"><path fill="#41D1FF" d="M399.641 59.525 215.643 388.656c-2.483 4.31-8.76 4.33-11.266.038L10.579 59.531c-2.746-4.83 1.371-10.646 6.827-9.67l181.594 32.32a6.537 6.537 0 0 0 2.322-.002l190.4-32.318c5.46-.925 9.574 4.795 6.828 9.626Z"/><path fill="#BD34FE" d="m292.965.006-175.59 33.228c-1.89.357-3.208 2.012-3.086 3.931l8.176 131.742c.125 2.015 1.88 3.525 3.88 3.327l49.417-4.909c2.08-.206 3.732 1.622 3.36 3.68l-14.701 81.732c-.388 2.156 1.63 3.98 3.74 3.293l30.647-9.724c2.12-.673 4.287.87 4.252 3.084l-.791 54.821c-.034 2.226 2.435 3.606 4.362 2.447l21.402-13.25a2.998 2.998 0 0 1 3.041-.041l46.89 27.734c1.93 1.14 4.374-.221 4.51-2.427l14.516-238.75c.134-2.206-1.826-3.967-3.94-3.58l-50.724 9.349c-2.122.391-3.991-1.403-3.604-3.52l9.975-55.676c.388-2.165-1.664-4.024-3.763-3.347Z"/><path fill="#FFEA83" d="M292.401 1.353 116.78 34.78c-2.001.383-3.454 2.13-3.329 4.14l8.21 131.742c.125 2.014 1.942 3.512 3.932 3.291l49.417-5.406c2.08-.227 3.835 1.584 3.428 3.643l-14.786 81.731c-.395 2.153 1.693 3.996 3.803 3.312l30.651-9.676c2.12-.669 4.274.885 4.238 3.098l-.788 54.821c-.032 2.225 2.453 3.598 4.379 2.431l21.399-13.202a2.998 2.998 0 0 1 3.063-.025l46.887 27.733c1.93 1.14 4.374-.221 4.51-2.427l14.516-238.75c.134-2.206-1.826-3.967-3.94-3.58l-50.724 9.349c-2.122.391-3.991-1.403-3.604-3.52l9.906-54.612c.388-2.138-1.618-3.99-3.713-3.361Z"/></svg>
